<?xml version="1.0" encoding="iso-8859-1"?>
<!-- Generator: Adobe Illustrator 19.0.0, SVG Export Plug-In . SVG Version: 6.00 Build 0)  -->
<svg version="1.1" id="Capa_1" xmlns="http://www.w3.org/2000/svg" xmlns:xlink="http://www.w3.org/1999/xlink" x="0px" y="0px"
	 viewBox="0 0 512 512" style="enable-background:new 0 0 512 512;" xml:space="preserve">
<path style="fill:#319CD6;" d="M348.055,503.414H30.107C13.479,503.414,0,489.935,0,473.307V35.262
	C0,18.634,13.479,5.155,30.107,5.155h317.948c16.628,0,30.107,13.479,30.107,30.107v438.046
	C378.162,489.935,364.683,503.414,348.055,503.414z"/>
<path style="fill:#55D8EF;" d="M189.081,5.155H30.107C13.479,5.155,0,18.634,0,35.262v438.046c0,16.627,13.479,30.107,30.107,30.107
	h158.974V5.155z"/>
<g>
	<path style="fill:#D2D6E3;" d="M378.162,91.527V35.262c0-16.628-13.479-30.107-30.107-30.107H30.107
		C13.479,5.155,0,18.634,0,35.262v56.266h378.162V91.527z"/>
	<path style="fill:#D2D6E3;" d="M0,419.01v54.298c0,16.627,13.479,30.107,30.107,30.107h317.948
		c16.628,0,30.107-13.48,30.107-30.107V419.01H0z"/>
</g>
<g>
	<path style="fill:#F2F4F9;" d="M189.081,5.155H30.107C13.479,5.155,0,18.634,0,35.262v56.266h189.081V5.155z"/>
	<path style="fill:#F2F4F9;" d="M189.081,419.01H0v54.298c0,16.627,13.479,30.107,30.107,30.107h158.974V419.01z"/>
</g>
<path style="fill:#FFAE42;" d="M248.234,212.902c-5.878-5.879-15.41-5.879-21.289,0l-50.485,50.484l-11.564-12.333
	c-5.687-6.064-15.213-6.371-21.279-0.683c-6.065,5.687-6.371,15.214-0.683,21.279l19.989,21.316
	c3.349,3.571,8.077,5.663,12.971,5.741c0.095,0.001,0.19,0.002,0.285,0.002c4.794,0,9.469-1.932,12.863-5.326l59.191-59.191
	C254.113,228.312,254.113,218.781,248.234,212.902z"/>
<path style="fill:#FFDF63;" d="M189.081,250.766l-12.621,12.62l-11.564-12.333c-5.687-6.064-15.213-6.371-21.279-0.683
	c-6.065,5.687-6.371,15.214-0.683,21.279l19.989,21.316c3.349,3.571,8.077,5.663,12.971,5.741c0.095,0.001,0.19,0.002,0.285,0.002
	c4.794,0,9.469-1.932,12.863-5.326l0.038-0.038L189.081,250.766z"/>
<path style="fill:#319CD6;" d="M496.946,207.891H376.768c-8.301,0-15.054,6.753-15.054,15.054v268.846
	c0,8.301,6.753,15.053,15.054,15.053h120.178c8.301,0,15.053-6.753,15.053-15.053V222.945
	C512,214.644,505.247,207.891,496.946,207.891z"/>
<path style="fill:#55D8EF;" d="M436.858,207.891h-60.089c-8.301,0-15.054,6.753-15.054,15.054v268.846
	c0,8.301,6.753,15.053,15.054,15.053h60.089V207.891z"/>
<g>
	<path style="fill:#D2D6E3;" d="M512,254.284v-31.339c0-8.301-6.753-15.054-15.053-15.054H376.768
		c-8.301,0-15.054,6.753-15.054,15.054v31.339H512z"/>
	<path style="fill:#D2D6E3;" d="M361.715,462.885v28.907c0,8.301,6.753,15.053,15.054,15.053h120.178
		c8.301,0,15.053-6.753,15.053-15.053v-28.907H361.715z"/>
</g>
<g>
	<path style="fill:#F2F4F9;" d="M436.858,207.891h-60.089c-8.301,0-15.054,6.753-15.054,15.054v31.339h75.142V207.891z"/>
	<path style="fill:#F2F4F9;" d="M436.858,462.885h-75.142v28.907c0,8.301,6.753,15.053,15.054,15.053h60.089V462.885z"/>
</g>
<path style="fill:#FFAE42;" d="M473.792,324.699c-5.878-5.879-15.41-5.879-21.289,0l-27.64,27.64l-3.316-3.536
	c-5.687-6.064-15.213-6.371-21.278-0.683s-6.371,15.213-0.683,21.278l11.741,12.52c3.349,3.571,8.077,5.663,12.971,5.741
	c0.095,0.001,0.19,0.002,0.285,0.002c4.794,0,9.469-1.932,12.863-5.326l36.346-36.346
	C479.671,340.108,479.671,330.577,473.792,324.699z"/>
<path style="fill:#FFDF63;" d="M436.858,340.344l-11.994,11.994l-3.316-3.536c-5.687-6.064-15.213-6.371-21.278-0.683
	c-6.065,5.687-6.371,15.213-0.683,21.278l11.741,12.52c3.349,3.571,8.077,5.663,12.971,5.741c0.095,0.001,0.19,0.002,0.285,0.002
	c4.523,0,8.94-1.72,12.275-4.765L436.858,340.344z"/>
<g>
</g>
<g>
</g>
<g>
</g>
<g>
</g>
<g>
</g>
<g>
</g>
<g>
</g>
<g>
</g>
<g>
</g>
<g>
</g>
<g>
</g>
<g>
</g>
<g>
</g>
<g>
</g>
<g>
</g>
</svg>
